<?xml version="1.0" standalone="no"?>
<!DOCTYPE svg PUBLIC "-//W3C//DTD SVG 20010904//EN"
 "http://www.w3.org/TR/2001/REC-SVG-20010904/DTD/svg10.dtd">
<svg version="1.0" xmlns="http://www.w3.org/2000/svg"
 width="3300.000000pt" height="3300.000000pt" viewBox="0 0 3300.000000 3300.000000"
 preserveAspectRatio="xMidYMid meet">
<metadata>
Created by potrace 1.14, written by Peter Selinger 2001-2017
</metadata>
<g transform="translate(0.000000,3300.000000) scale(0.100000,-0.100000)"
fill="#000000" stroke="none">
<path d="M4114 28747 c-5 -12 -42 -83 -81 -157 -115 -220 -220 -422 -246 -470
l-23 -44 -165 -2 c-106 -1 -182 -7 -216 -16 l-52 -15 -163 216 c-256 341 -293
389 -296 386 -2 -2 33 -221 52 -320 7 -38 16 -90 22 -129 3 -21 8 -48 10 -60
4 -20 13 -73 20 -108 6 -35 18 -114 19 -123 0 -5 -19 -22 -43 -36 -64 -38
-149 -123 -214 -212 -12 -16 -35 -12 -353 68 -187 46 -350 87 -363 90 -18 4
-13 -3 20 -32 24 -21 45 -40 48 -43 3 -3 43 -39 90 -80 47 -41 90 -79 96 -85
52 -48 179 -160 221 -196 28 -24 54 -50 57 -56 3 -7 -4 -50 -15 -95 -41 -163
-30 -447 22 -568 l20 -46 -231 -233 c-128 -128 -230 -234 -228 -236 2 -2 82
21 178 51 96 30 227 71 290 90 63 19 120 37 127 39 6 2 57 -41 114 -96 150
-147 170 -161 333 -231 95 -40 154 -71 163 -86 30 -44 137 -406 169 -567 13
-69 17 -78 24 -64 4 8 13 39 19 69 6 30 13 64 16 75 2 11 25 119 51 240 25
121 52 223 58 228 21 14 84 27 142 30 l58 2 198 -460 c247 -574 230 -534 243
-570 9 -27 7 -36 -23 -83 -126 -200 -127 -433 -2 -683 55 -111 163 -273 189
-284 21 -8 22 -3 12 51 -16 82 -7 242 17 296 51 116 147 176 397 251 221 67
222 67 400 99 94 17 160 22 305 22 163 1 215 -2 295 -18 11 -2 45 -6 75 -10
30 -4 69 -8 85 -11 40 -4 222 -16 315 -20 255 -10 372 -16 425 -20 33 -3 92
-8 130 -10 39 -3 81 -8 95 -10 14 -2 50 -7 80 -10 163 -19 357 -77 495 -148
191 -99 356 -212 735 -505 599 -464 680 -532 945 -797 213 -211 391 -431 524
-642 36 -58 151 -279 156 -300 2 -10 45 -146 95 -303 50 -157 127 -400 171
-540 91 -286 146 -455 159 -485 4 -11 23 -63 41 -115 147 -435 357 -874 562
-1180 280 -417 804 -876 1387 -1214 131 -76 332 -165 411 -182 54 -11 186 -35
224 -39 97 -13 202 -33 305 -59 146 -38 241 -110 297 -226 40 -82 54 -145 54
-237 -1 -158 -53 -289 -245 -613 -102 -172 -138 -255 -162 -370 -41 -205 -13
-403 86 -605 148 -301 440 -530 750 -589 36 -7 80 -12 98 -12 34 1 52 -20 24
-28 -86 -24 -234 -24 -352 -1 -14 3 -34 7 -45 9 -11 2 -67 16 -124 30 -57 14
-106 24 -108 22 -6 -5 -11 -41 -18 -130 -22 -260 -151 -472 -368 -604 -64 -39
-190 -102 -205 -102 -5 0 -22 -6 -38 -14 -16 -8 -40 -17 -54 -21 -24 -7 -23
-5 10 30 19 20 78 71 130 113 52 42 138 119 190 171 106 106 148 178 157 265
7 67 -22 126 -107 216 -34 36 -103 119 -153 185 -51 66 -122 158 -158 205
-346 450 -475 622 -584 776 -224 316 -345 455 -490 569 -242 188 -591 388
-934 535 -132 56 -448 167 -581 204 -226 62 -348 88 -476 101 -38 4 -78 9 -89
11 -86 17 -526 23 -780 10 -144 -7 -181 -10 -290 -21 -27 -3 -77 -7 -110 -10
-33 -3 -76 -8 -95 -10 -19 -3 -62 -8 -95 -11 -33 -3 -67 -8 -76 -9 -9 -2 -40
-6 -70 -10 -30 -3 -67 -8 -82 -11 -30 -6 -37 -7 -132 -19 -105 -13 -126 -14
-315 -14 -183 -1 -219 1 -355 14 -89 8 -311 43 -350 55 -16 5 -41 11 -55 14
-56 9 -92 21 -252 82 -92 35 -170 64 -173 64 -8 0 33 -57 90 -125 149 -179
345 -311 615 -418 113 -45 322 -110 410 -127 25 -5 87 -18 139 -29 51 -12 114
-24 140 -27 25 -3 48 -7 51 -9 3 -2 34 -6 70 -10 36 -4 67 -8 70 -10 3 -2 33
-6 65 -10 33 -4 71 -8 84 -10 14 -3 54 -7 90 -11 36 -3 73 -7 83 -9 9 -2 48
-6 85 -10 66 -6 107 -10 203 -20 25 -2 77 -7 115 -10 39 -3 86 -8 105 -10 19
-2 67 -7 106 -10 68 -5 119 -10 209 -20 22 -2 72 -7 110 -10 39 -4 81 -8 95
-10 14 -2 50 -6 80 -10 30 -3 72 -8 92 -11 21 -3 52 -7 70 -9 18 -2 51 -7 73
-10 50 -8 78 -12 135 -20 25 -3 52 -8 60 -10 8 -2 29 -7 45 -9 280 -48 595
-146 795 -246 75 -38 221 -129 208 -130 -4 0 -56 14 -115 31 -58 17 -114 32
-122 34 -9 2 -56 13 -106 25 -118 28 -293 64 -430 89 -60 11 -123 23 -140 26
-16 3 -46 8 -65 10 -19 3 -44 8 -56 10 -12 3 -39 7 -60 10 -21 3 -55 8 -74 12
-19 3 -44 7 -55 8 -11 1 -54 8 -95 15 -41 7 -84 14 -95 15 -11 1 -33 4 -50 8
-16 3 -50 9 -75 12 -25 3 -54 7 -65 9 -11 2 -42 7 -70 10 -84 12 -119 17 -135
21 -8 2 -35 7 -60 10 -25 3 -85 13 -135 20 -49 8 -108 17 -130 20 -22 4 -47 8
-55 10 -8 2 -42 7 -75 10 -33 3 -72 8 -86 11 -15 3 -49 7 -76 9 -27 2 -67 6
-89 9 -21 3 -68 8 -104 11 -36 4 -83 8 -105 11 -84 9 -132 13 -195 19 -103 10
-161 17 -265 31 -22 3 -52 7 -67 9 -84 11 -237 41 -338 65 -376 92 -662 263
-866 517 -22 26 -42 50 -45 53 -4 3 -34 48 -68 100 -50 76 -128 225 -222 422
-9 18 -196 474 -235 572 -43 108 -93 318 -89 374 1 12 -1 22 -4 22 -4 0 -61
-57 -128 -127 -67 -71 -174 -182 -238 -248 l-115 -120 5 -60 c3 -33 10 -78 15
-100 5 -22 11 -51 14 -65 8 -43 56 -202 83 -275 14 -38 32 -88 40 -110 7 -22
19 -51 25 -65 17 -40 24 -57 78 -194 413 -1046 820 -1393 1902 -1621 92 -19
191 -38 220 -41 29 -4 56 -8 60 -11 37 -21 599 -20 728 2 14 2 56 7 93 10 37
4 76 8 85 10 9 1 40 6 67 9 50 6 239 34 285 42 113 19 562 25 770 10 63 -4
117 -9 120 -11 3 -1 38 -6 78 -9 40 -4 78 -9 85 -11 7 -2 30 -6 52 -9 60 -7
189 -34 290 -61 239 -65 456 -179 690 -364 90 -71 319 -301 415 -416 93 -112
108 -129 195 -229 228 -262 306 -424 308 -641 2 -115 -20 -241 -42 -250 -96
-40 -221 -67 -356 -80 -134 -12 -214 -20 -285 -30 -14 -2 -61 -11 -105 -20
-44 -9 -91 -18 -105 -20 -14 -2 -63 -10 -110 -19 -74 -13 -205 -33 -345 -52
-22 -3 -51 -7 -65 -9 -14 -2 -50 -6 -80 -10 -30 -4 -66 -8 -80 -10 -14 -2 -52
-6 -85 -10 -32 -4 -66 -8 -75 -10 -8 -1 -42 -6 -75 -10 -32 -4 -67 -8 -77 -10
-9 -2 -43 -6 -75 -10 -32 -3 -98 -12 -148 -20 -49 -8 -103 -16 -120 -19 -380
-58 -653 -128 -885 -227 l-115 -49 -1 -78 c-1 -84 -14 -324 -19 -350 -1 -10
-6 -46 -10 -82 -3 -36 -8 -76 -10 -90 -2 -14 -6 -45 -10 -70 -3 -25 -8 -56
-10 -70 -3 -14 -7 -38 -9 -55 -10 -63 -46 -266 -75 -420 -32 -177 -40 -221
-47 -280 -3 -22 -8 -42 -11 -45 -5 -5 -2 96 14 465 4 94 7 339 7 545 0 339 -4
466 -19 608 -3 26 -7 74 -9 107 -11 137 -18 222 -21 260 -2 22 -7 83 -11 135
-4 52 -10 97 -14 100 -10 6 -4847 6 -4853 0 -3 -3 -8 -39 -11 -80 -5 -67 -17
-189 -31 -320 -4 -39 -26 -264 -41 -415 -2 -27 -7 -75 -10 -105 -3 -30 -7 -68
-9 -85 -1 -16 -5 -50 -9 -75 -33 -220 -38 -716 -12 -1110 2 -25 7 -106 11
-180 4 -74 9 -151 10 -170 2 -19 4 -64 4 -99 1 -56 3 -62 19 -56 93 37 471
128 584 141 29 3 56 8 59 10 4 2 27 6 50 9 24 3 85 12 134 20 88 13 120 17
240 30 33 4 71 8 85 10 14 2 61 7 105 10 44 4 98 9 120 11 207 19 719 26 905
12 431 -34 662 -141 745 -344 23 -56 28 -134 12 -192 -29 -107 -174 -206 -334
-228 -26 -3 -51 -8 -55 -11 -5 -2 -8 0 -8 5 0 5 19 15 43 22 112 33 217 111
258 192 l20 39 -27 46 c-82 140 -285 243 -553 280 -105 15 -452 6 -481 -12 -3
-2 -34 -6 -69 -10 -34 -4 -71 -8 -81 -10 -38 -7 -235 -25 -440 -40 -170 -12
-197 -14 -300 -20 -58 -4 -125 -8 -150 -10 -25 -2 -83 -6 -130 -10 -84 -6
-153 -12 -220 -20 -19 -2 -60 -7 -90 -10 -134 -15 -318 -49 -452 -85 -132 -34
-354 -124 -403 -163 -5 -4 -39 -26 -73 -49 -205 -135 -241 -329 -102 -543 143
-219 451 -419 680 -441 53 -5 57 -4 95 31 262 240 656 415 1013 451 37 3 70 8
74 11 5 2 8 0 8 -5 0 -5 -28 -16 -63 -26 -229 -63 -519 -207 -715 -357 -85
-65 -222 -197 -222 -213 0 -14 76 -198 131 -317 262 -565 602 -981 1014 -1240
292 -183 628 -304 940 -337 154 -16 351 -7 500 23 428 86 808 345 1163 791 48
61 212 314 265 409 69 125 140 273 267 560 96 218 145 360 167 490 3 17 6 31
6 32 1 0 36 4 77 7 351 30 634 188 902 503 40 48 138 159 217 247 136 153 165
185 285 316 148 162 193 213 246 280 325 408 692 751 927 869 118 59 151 63
453 65 260 2 278 3 332 24 33 14 59 31 63 42 12 37 22 101 30 195 3 39 8 88
10 110 3 22 5 88 6 148 2 59 5 107 8 107 9 0 128 -394 147 -485 37 -181 18
-333 -66 -528 -61 -141 -141 -268 -309 -487 -234 -306 -321 -429 -321 -453 0
-17 175 64 315 147 122 72 169 103 405 271 102 72 295 205 430 295 662 444
944 690 1239 1080 278 367 511 796 557 1026 l8 39 6 -35 c9 -59 -9 -119 -80
-265 -38 -77 -83 -176 -100 -220 -17 -44 -37 -93 -45 -110 -7 -16 -34 -79 -60
-140 -47 -109 -118 -252 -155 -310 -11 -16 -23 -37 -27 -45 -9 -20 -65 -101
-105 -153 -50 -65 -123 -135 -241 -231 -59 -48 -149 -133 -200 -188 -213 -232
-499 -506 -691 -663 -27 -22 -77 -63 -110 -91 -34 -27 -79 -63 -101 -79 -22
-17 -42 -33 -45 -36 -8 -9 -355 -268 -435 -324 -38 -27 -74 -53 -80 -58 -35
-29 -194 -134 -410 -271 -399 -253 -540 -356 -686 -497 -267 -261 -352 -465
-344 -829 5 -244 48 -445 181 -839 89 -266 169 -461 285 -696 111 -226 208
-393 289 -497 30 -38 93 -118 139 -177 46 -58 94 -119 107 -136 12 -16 70 -89
127 -162 93 -117 102 -131 78 -128 -14 2 -55 6 -91 10 -36 3 -89 8 -117 11
-40 5 -53 3 -54 -8 0 -7 -2 -20 -3 -28 -2 -8 -7 -51 -10 -95 -4 -44 -9 -96
-11 -115 -2 -19 -7 -69 -10 -110 -4 -41 -8 -86 -10 -100 -1 -14 -6 -63 -10
-110 -4 -47 -9 -92 -10 -100 -1 -8 -6 -56 -10 -107 -7 -85 -8 -91 -28 -88 -11
3 -59 7 -106 10 -47 3 -104 8 -126 10 -22 2 -74 6 -115 9 -41 4 -100 9 -130
11 -30 3 -91 8 -135 11 -44 3 -93 7 -110 9 -16 1 -70 5 -120 9 -49 4 -110 9
-135 11 -65 7 -166 15 -235 20 -56 4 -120 9 -240 20 -27 2 -86 7 -130 11 -44
3 -96 7 -115 9 -19 2 -73 6 -120 10 -47 3 -101 8 -120 10 -19 2 -78 7 -130 10
-52 3 -111 8 -130 10 -19 3 -66 7 -105 10 -38 3 -92 7 -120 9 -27 3 -88 7
-135 11 -47 3 -101 8 -120 10 -19 2 -71 7 -115 10 -44 3 -100 8 -125 10 -25 2
-81 7 -125 10 -75 5 -104 8 -237 20 -29 2 -84 7 -123 10 -38 3 -88 7 -109 9
-39 4 -38 3 160 -194 l199 -198 84 -7 c46 -3 98 -8 115 -10 17 -2 63 -7 101
-9 39 -3 90 -8 115 -10 25 -3 77 -8 115 -11 39 -4 86 -8 105 -10 19 -2 71 -7
115 -10 44 -3 91 -8 105 -10 14 -2 66 -6 115 -10 50 -3 109 -8 133 -10 23 -3
61 -7 85 -10 23 -2 74 -7 112 -10 81 -7 143 -12 240 -21 83 -8 102 -9 220 -18
50 -4 97 -9 105 -11 8 -2 60 -7 115 -11 55 -3 109 -8 120 -10 11 -2 54 -6 95
-9 41 -3 93 -7 115 -10 22 -2 72 -7 110 -11 73 -6 91 -8 215 -18 41 -4 98 -9
125 -11 93 -10 150 -15 210 -20 121 -10 160 -17 170 -27 9 -9 -22 -8 -170 7
-51 5 -150 14 -240 20 -38 3 -92 7 -120 10 -27 2 -84 7 -125 10 -41 3 -93 7
-115 10 -22 2 -76 6 -120 10 -44 3 -100 8 -125 10 -25 3 -79 7 -120 11 -90 6
-156 12 -230 19 -30 3 -89 7 -130 10 -41 3 -91 7 -110 10 -19 2 -71 7 -115 10
-44 3 -102 8 -130 10 -27 3 -79 7 -115 10 -100 7 -211 16 -251 20 -19 2 -73 7
-120 10 -46 4 -100 8 -119 10 -19 2 -73 6 -120 10 -47 3 -103 8 -125 10 -22 2
-74 7 -115 10 -41 3 -97 8 -125 10 -27 3 -87 7 -133 11 l-83 6 -160 -106 c-87
-58 -159 -104 -159 -102 0 2 68 52 150 111 82 59 150 110 150 113 0 23 -107
135 -212 222 -68 57 -139 119 -158 140 l-35 36 -160 -52 c-88 -28 -288 -93
-445 -144 -272 -87 -535 -173 -647 -209 l-52 -18 37 -15 c29 -13 475 -181 907
-343 33 -13 90 -34 127 -48 70 -27 107 -31 368 -42 74 -3 171 -8 215 -10 84
-4 273 -13 440 -20 55 -2 141 -7 190 -10 90 -5 255 -13 435 -20 98 -4 279 -14
385 -20 113 -7 290 -17 360 -20 39 -2 117 -6 175 -10 136 -8 316 -18 535 -30
50 -3 128 -8 175 -10 47 -3 123 -8 170 -10 229 -12 315 -17 320 -20 3 -2 3
-39 -1 -82 -3 -43 -10 -118 -14 -167 -4 -50 -8 -97 -10 -107 -2 -9 -6 -58 -10
-110 -3 -52 -8 -110 -10 -129 -2 -19 -7 -74 -10 -122 -7 -87 -6 -88 17 -89 13
0 30 -2 38 -3 8 -2 58 -6 110 -10 52 -4 114 -9 138 -12 36 -5 42 -3 43 13 4
69 20 258 25 283 2 14 6 66 10 115 3 50 7 106 9 125 2 19 7 69 10 110 4 41 8
91 10 110 2 19 4 41 4 48 1 9 14 11 49 7 143 -17 251 -52 548 -178 195 -83
322 -128 394 -142 109 -20 230 -4 305 39 47 28 125 110 158 167 l21 37 141 -3
c355 -9 706 -26 825 -41 92 -11 113 -14 156 -25 l45 -12 40 44 c53 58 114 184
140 289 25 98 33 330 12 351 -12 12 -24 14 -163 24 -47 3 -105 8 -130 10 -25
3 -76 7 -115 10 -78 6 -170 14 -230 20 -22 2 -80 7 -130 10 -49 4 -108 8 -130
10 -22 2 -76 7 -120 10 -43 3 -82 8 -84 11 -3 3 -6 42 -7 87 -12 526 -137 924
-454 1442 -57 94 -155 255 -218 359 -193 320 -334 636 -366 826 -3 19 -8 46
-11 60 -34 169 -18 528 35 770 5 25 12 56 14 70 6 33 39 155 71 260 86 286
261 681 410 928 32 51 54 96 51 99 -6 7 -88 -40 -141 -81 -33 -26 -91 -77
-165 -146 -9 -8 -38 -33 -65 -55 -72 -58 -201 -189 -266 -270 -167 -207 -316
-508 -385 -775 -8 -30 -16 -62 -19 -70 -12 -42 -54 -273 -60 -330 -4 -36 -8
-72 -10 -80 -14 -75 -22 -526 -11 -645 3 -27 8 -92 11 -144 4 -51 8 -101 10
-112 2 -10 6 -44 10 -76 3 -32 8 -70 11 -85 2 -16 1 -28 -3 -28 -15 0 -86 106
-119 176 -29 62 -39 91 -59 179 -30 128 -38 405 -16 562 23 164 26 182 40 248
6 28 14 64 17 80 24 119 113 422 154 525 10 25 31 77 45 115 97 251 257 491
482 720 107 110 266 251 343 305 19 13 37 27 40 31 10 12 196 138 290 194 124
76 340 183 460 230 52 20 160 62 240 92 277 108 553 306 875 628 270 269 492
564 692 920 41 72 196 384 237 475 16 36 51 112 79 170 70 150 107 243 133
340 13 47 23 76 23 65 1 -11 -3 -36 -8 -55 -6 -19 -12 -52 -16 -74 -3 -21 -7
-41 -10 -45 -2 -4 -6 -18 -8 -32 -28 -147 -155 -518 -249 -723 -27 -59 -155
-313 -188 -371 -86 -154 -346 -549 -379 -575 -3 -3 -44 -52 -91 -110 -109
-137 -131 -161 -280 -310 -133 -134 -194 -190 -303 -278 -37 -30 -66 -56 -65
-58 4 -3 98 -12 223 -20 55 -3 116 -7 137 -9 20 -2 77 -7 128 -10 50 -3 142
-17 203 -31 62 -14 119 -27 128 -29 134 -29 210 -45 239 -50 19 -3 60 -10 90
-15 115 -20 160 -24 310 -24 177 -1 247 6 341 33 80 23 204 83 316 154 114 72
263 128 344 128 65 1 201 -48 378 -136 177 -88 327 -152 386 -165 175 -38 343
-29 640 36 275 60 346 73 480 88 33 4 71 9 85 11 59 10 308 24 434 25 l69 0
-59 56 c-411 392 -435 417 -637 674 -298 378 -573 834 -708 1171 -51 128 -109
301 -134 399 -21 81 -65 294 -61 297 2 2 27 -56 56 -129 28 -73 58 -146 65
-163 7 -16 27 -68 45 -115 249 -645 609 -1188 1051 -1583 188 -168 540 -406
879 -594 30 -17 73 -41 95 -54 22 -12 96 -54 165 -92 69 -38 137 -78 152 -88
14 -11 29 -19 32 -19 9 0 229 -135 346 -213 97 -65 283 -201 322 -237 9 -8 54
-49 100 -90 258 -233 458 -515 567 -800 18 -47 36 -94 41 -105 40 -101 132
-456 145 -562 2 -11 5 -29 8 -40 3 -10 9 -42 12 -72 4 -30 9 -63 11 -75 6 -31
18 -232 17 -306 -1 -301 -50 -478 -176 -643 l-36 -47 5 58 c2 31 7 75 9 97 26
209 26 837 0 1010 -2 17 -7 50 -10 75 -3 25 -7 59 -10 75 -3 17 -7 41 -9 55
-25 151 -88 376 -143 515 -131 326 -345 612 -628 838 -101 80 -203 149 -215
145 -5 -2 9 -31 31 -65 21 -35 66 -114 99 -176 194 -374 331 -781 385 -1152 4
-22 8 -51 11 -65 18 -103 24 -382 11 -535 -22 -271 -104 -530 -244 -773 -29
-51 -216 -350 -279 -447 -21 -33 -43 -68 -49 -77 -5 -10 -46 -77 -90 -150 -76
-127 -219 -402 -259 -498 -41 -100 -98 -286 -117 -383 -26 -131 -32 -327 -13
-427 8 -41 17 -98 20 -126 l7 -51 -64 -8 c-35 -4 -71 -8 -79 -10 -8 -1 -42 -5
-75 -9 -33 -3 -69 -8 -81 -10 -11 -2 -45 -7 -75 -10 -30 -3 -65 -8 -79 -11
-14 -3 -38 -7 -55 -9 -16 -2 -68 -11 -115 -20 -47 -8 -96 -17 -110 -20 -14 -2
-68 -14 -120 -26 -52 -12 -102 -23 -110 -25 -8 -2 -69 -20 -135 -40 -221 -68
-430 -169 -442 -215 -8 -30 -7 -181 1 -215 8 -31 73 -65 171 -91 97 -25 421
-25 515 1 8 2 31 7 50 10 141 22 307 61 740 174 l195 51 30 -34 c17 -19 59
-83 95 -142 115 -194 216 -265 364 -259 83 3 126 17 226 70 186 100 274 137
490 208 225 74 331 119 413 176 49 33 119 104 148 148 23 35 24 96 2 129 -14
22 -14 27 -2 35 8 5 21 9 29 10 8 0 24 2 35 4 140 28 367 71 475 91 195 37
331 63 365 69 17 3 134 26 260 50 127 24 244 46 260 50 17 3 45 8 64 11 18 3
43 8 55 10 11 3 32 7 46 10 93 18 413 79 498 95 89 17 274 52 340 65 54 10 80
15 119 20 l42 7 -5 -54 c-26 -288 -235 -536 -604 -720 -52 -26 -144 -64 -205
-85 -60 -20 -111 -38 -113 -39 -6 -5 45 -84 96 -148 179 -226 510 -372 917
-404 152 -12 472 -5 535 12 8 2 40 6 70 9 30 4 66 8 80 11 60 12 78 15 130 27
30 6 57 12 60 13 3 1 21 5 40 9 74 17 267 78 354 112 120 47 304 144 386 202
78 56 178 158 205 210 10 20 26 48 35 62 28 44 175 429 167 437 -2 2 -51 5
-108 8 -148 7 -262 16 -270 21 -4 2 -24 6 -45 9 -412 58 -558 124 -669 305
-31 51 -75 150 -75 169 0 7 53 24 114 37 10 2 42 10 71 19 l53 15 -9 37 c-4
21 -11 54 -14 73 -3 19 -8 42 -10 50 -2 8 -6 29 -9 45 -10 59 -49 260 -51 263
-2 2 -162 -29 -223 -43 -23 -6 -23 -6 -21 102 1 110 24 227 53 281 8 15 20 38
26 51 29 64 136 171 236 237 74 49 201 115 299 156 22 9 98 41 168 71 l129 54
-53 64 c-170 206 -393 345 -707 438 -54 16 -116 32 -138 35 -21 4 -46 8 -54
11 -99 29 -487 42 -635 22 -105 -15 -222 -36 -249 -47 -14 -5 -26 -8 -26 -5 0
10 -271 -90 -354 -130 -147 -72 -191 -99 -306 -186 -200 -152 -347 -333 -469
-576 -28 -56 -51 -104 -51 -107 0 -2 -5 -17 -12 -33 -33 -82 -31 -121 7 -113
63 13 221 26 305 24 129 -2 191 -9 299 -36 268 -65 455 -211 530 -411 26 -71
27 -102 4 -104 -16 -1 -126 -21 -216 -38 -15 -2 -55 -10 -90 -15 -34 -6 -93
-17 -132 -25 -38 -7 -86 -16 -105 -19 -19 -3 -46 -8 -60 -11 -35 -7 -128 -23
-174 -30 -21 -3 -41 -7 -45 -9 -3 -3 -26 -7 -49 -11 -39 -5 -155 -26 -222 -39
-14 -3 -65 -12 -115 -20 -49 -9 -101 -18 -115 -21 -14 -3 -38 -8 -55 -10 -16
-3 -138 -26 -270 -50 -132 -24 -253 -46 -270 -49 -30 -5 -232 -42 -271 -50
-12 -2 -37 -7 -55 -10 -66 -10 -705 -126 -749 -136 -25 -5 -63 -12 -85 -15
-69 -11 -98 -16 -162 -30 -35 -7 -63 -9 -63 -4 0 18 55 160 93 239 47 98 146
255 220 350 43 55 86 106 242 288 11 13 36 41 55 61 329 351 553 696 780 1196
87 193 281 680 331 828 111 334 132 578 69 807 -23 85 -23 86 -37 120 -91 217
-186 344 -402 538 -69 62 -260 193 -487 335 -309 193 -353 222 -470 313 -56
44 -164 126 -239 184 -75 58 -142 110 -149 115 -6 6 -60 48 -121 95 -60 46
-112 87 -115 90 -3 3 -32 25 -65 50 -33 25 -121 93 -197 152 -75 58 -152 118
-170 132 -239 185 -240 185 -348 324 -105 135 -110 139 -236 222 -373 244
-697 722 -850 1253 -35 121 -78 336 -69 345 5 5 6 4 39 -94 42 -126 173 -400
301 -629 85 -153 285 -456 334 -506 9 -8 32 -33 52 -55 19 -21 46 -48 59 -59
l24 -20 -18 29 c-29 45 -10 31 134 -104 274 -256 307 -283 571 -464 85 -58
159 -109 164 -114 55 -42 692 -445 995 -629 129 -78 261 -158 292 -177 41 -25
55 -30 51 -18 -16 43 -175 270 -266 377 -226 270 -377 535 -412 726 -26 150
-25 317 5 429 5 19 11 46 13 60 3 14 17 72 31 128 36 144 81 243 82 185 1 -22
14 -157 19 -198 2 -16 6 -58 10 -92 3 -35 8 -80 10 -100 3 -21 7 -62 10 -92 2
-29 6 -55 8 -57 14 -14 165 -30 372 -39 187 -8 260 -15 330 -29 125 -26 140
-32 263 -113 264 -173 549 -461 907 -917 17 -21 38 -48 47 -60 10 -11 21 -25
26 -31 333 -415 350 -434 551 -635 266 -265 484 -410 672 -449 117 -24 178
-30 404 -36 215 -6 325 -16 440 -41 45 -10 27 3 -82 54 -298 143 -506 284
-688 467 -154 155 -226 260 -555 810 -168 279 -384 615 -409 635 -3 3 -31 37
-62 76 -192 240 -451 414 -864 581 -60 24 -119 48 -130 53 -123 58 -382 135
-494 147 -70 7 -71 18 -4 28 91 14 175 11 297 -10 40 -7 217 -61 292 -89 174
-64 587 -288 650 -351 8 -8 19 -15 24 -15 31 0 359 -360 429 -470 8 -14 18
-27 22 -30 10 -8 179 -266 239 -365 30 -49 58 -91 63 -93 4 -2 7 -8 7 -13 0
-23 244 -393 369 -558 245 -326 509 -541 841 -684 43 -19 158 -58 185 -63 11
-2 40 -8 65 -14 102 -22 195 -30 415 -35 88 -1 174 -6 190 -9 17 -4 41 -9 55
-11 15 -3 111 20 232 55 113 33 219 60 235 60 68 -1 200 -46 301 -102 32 -17
107 -59 167 -93 162 -90 250 -121 405 -142 111 -15 448 -8 570 11 14 3 44 7
67 10 127 16 301 74 383 127 50 32 63 47 94 111 62 125 97 305 100 503 2 99
-8 185 -35 299 -12 49 -13 78 -9 246 3 120 1 130 -75 313 l-64 151 56 23 c96
39 149 87 189 170 45 93 37 212 -30 441 -51 175 -68 251 -82 370 -2 26 -7 56
-8 67 -2 11 -7 38 -11 60 -9 53 -9 55 -98 238 l-77 157 24 10 c43 16 105 80
140 144 52 94 70 187 71 351 0 210 -13 304 -78 545 -46 173 -155 394 -237 482
-165 177 -401 123 -890 -203 -194 -129 -223 -142 -278 -134 -26 5 -54 9 -62
10 -8 2 -44 7 -80 14 -177 29 -310 31 -450 6 -14 -3 -39 -7 -57 -10 -58 -9
-268 -73 -364 -110 -222 -87 -498 -243 -662 -376 -118 -96 -283 -275 -359
-390 -107 -162 -138 -225 -188 -378 -45 -140 -63 -256 -64 -423 0 -130 -2
-145 -16 -138 -32 17 -210 178 -380 343 -114 111 -196 181 -270 229 -60 39
-213 117 -270 137 -19 7 -44 17 -55 21 -64 27 -278 84 -390 105 -16 3 -41 8
-55 10 -14 3 -40 8 -59 11 -18 3 -43 8 -55 10 -63 12 -304 45 -436 59 -30 3
-66 8 -80 10 -14 2 -54 6 -90 10 -36 3 -81 8 -100 10 -33 5 -55 7 -200 20 -30
3 -66 8 -80 10 -14 2 -50 7 -80 10 -30 4 -71 8 -90 11 -19 2 -55 7 -80 9 -58
7 -273 43 -325 55 -39 9 -74 15 -132 24 -27 5 -76 10 -180 21 -27 3 -73 7
-103 10 -84 9 -196 34 -244 54 -39 17 -44 24 -56 68 -7 26 -14 100 -15 163 -4
143 23 261 90 397 72 145 150 240 404 493 315 313 371 363 586 528 50 38 308
182 327 182 3 0 23 8 44 17 22 9 41 17 44 18 3 1 43 14 90 29 97 32 161 49
240 65 127 26 148 29 355 51 84 8 656 5 760 -4 73 -7 247 -25 295 -31 75 -8
146 -17 160 -20 8 -2 38 -6 65 -9 28 -4 95 -14 150 -22 132 -21 218 -27 345
-28 104 0 286 10 325 18 11 2 43 7 70 10 28 4 57 9 65 11 8 2 33 6 55 10 22 3
87 17 145 31 600 143 1172 450 1405 754 37 49 165 246 165 255 0 1 16 32 36
67 90 158 224 482 297 718 52 165 124 435 141 520 2 14 12 59 21 100 21 98 55
264 69 340 2 14 13 77 25 140 11 63 23 131 26 150 3 19 9 58 13 85 27 172 -27
437 -126 615 -14 25 -34 61 -45 80 -36 66 -130 185 -202 256 -156 154 -311
230 -474 232 -81 1 -85 0 -113 -30 -15 -16 -28 -40 -28 -52 0 -53 49 -168 116
-274 19 -29 34 -54 34 -57 0 -2 12 -21 26 -42 42 -61 76 -133 63 -133 -7 0
-44 33 -84 73 -61 62 -82 94 -134 198 -33 69 -61 130 -61 137 0 35 -259 -99
-416 -216 -200 -149 -305 -300 -300 -434 4 -130 77 -192 263 -223 44 -7 85
-23 106 -42 16 -15 22 -15 71 0 65 21 173 86 331 200 66 47 142 98 169 113
l49 27 34 -39 c30 -34 82 -121 89 -149 2 -5 11 -37 20 -70 19 -65 25 -259 11
-353 -41 -287 -184 -665 -387 -1022 -27 -47 -65 -125 -86 -175 -97 -232 -258
-398 -554 -571 -161 -94 -296 -149 -504 -204 -102 -27 -326 -71 -436 -85 -25
-3 -56 -8 -70 -10 -14 -2 -45 -7 -70 -10 -25 -3 -56 -8 -70 -10 -14 -2 -51 -7
-83 -10 -32 -4 -66 -8 -75 -10 -10 -2 -45 -6 -77 -10 -33 -4 -68 -9 -79 -11
-10 -2 -44 -6 -75 -10 -31 -3 -65 -8 -76 -10 -11 -3 -36 -7 -55 -10 -19 -2
-46 -7 -60 -10 -32 -6 -65 -11 -115 -19 -22 -3 -47 -7 -55 -10 -8 -2 -37 -6
-65 -10 -27 -3 -77 -10 -110 -15 -33 -5 -76 -11 -95 -14 -47 -7 -267 -36 -310
-41 -78 -9 -126 -16 -150 -20 -14 -2 -54 -7 -90 -11 -36 -3 -72 -7 -80 -9 -8
-1 -40 -6 -70 -10 -30 -4 -62 -9 -70 -10 -8 -2 -44 -6 -80 -10 -36 -4 -67 -8
-70 -10 -3 -1 -32 -6 -65 -9 -33 -4 -67 -9 -75 -11 -8 -2 -31 -6 -50 -9 -19
-3 -60 -10 -90 -16 -30 -6 -71 -13 -90 -16 -195 -30 -645 -156 -753 -211 -81
-41 -5 41 103 112 56 36 191 102 224 110 6 1 18 5 26 8 73 28 292 80 421 101
19 3 77 12 129 21 52 9 106 18 120 20 85 13 220 37 250 45 19 5 53 11 75 14
22 3 49 7 60 10 11 2 43 7 70 10 28 4 64 9 80 11 86 13 117 17 245 30 36 4 72
9 80 10 8 2 53 6 100 10 47 4 92 8 100 10 8 2 53 6 100 10 47 3 99 8 115 9 17
2 66 6 110 10 44 4 96 9 115 11 19 2 60 6 90 9 126 12 177 17 210 21 19 3 58
7 85 10 28 4 61 8 75 10 14 2 61 9 105 15 44 6 92 12 108 15 15 3 55 10 90 15
253 43 540 125 705 201 35 16 65 29 67 29 12 0 187 109 235 145 101 78 229
218 272 299 9 17 8 18 -23 12 -19 -3 -118 -29 -221 -57 -102 -27 -195 -52
-205 -54 -10 -3 -38 -9 -63 -16 -69 -17 -200 -42 -285 -54 -131 -19 -311 -23
-435 -10 -100 10 -132 12 -290 20 -74 4 -151 8 -170 10 -19 2 -107 6 -195 10
-88 4 -162 8 -165 10 -3 1 -30 6 -61 9 -31 4 -65 8 -75 10 -45 9 -165 21 -314
33 -132 10 -517 10 -630 0 -70 -6 -177 -23 -335 -53 -11 -2 -86 -20 -165 -39
-622 -153 -1081 -376 -1520 -739 -47 -38 -155 -140 -241 -225 -219 -220 -383
-415 -685 -816 -67 -88 -167 -221 -223 -295 -56 -74 -179 -236 -273 -360
l-170 -225 5 -51 c13 -127 130 -271 415 -508 45 -38 80 -71 78 -73 -2 -3 -37
5 -77 17 -296 89 -492 284 -570 568 -26 92 -27 103 -35 225 -4 53 -9 97 -11
97 -3 0 -39 -15 -81 -33 -274 -120 -440 -140 -580 -70 l-54 27 38 13 c20 7
112 27 203 44 247 45 345 93 498 244 205 202 315 450 317 715 1 237 -23 308
-200 601 -161 267 -210 385 -221 538 -8 125 34 272 103 354 66 79 197 141 364
172 14 3 36 7 50 10 14 3 54 10 90 16 267 42 356 67 506 138 277 132 608 354
913 610 68 57 132 111 141 120 146 138 245 239 337 343 166 188 371 531 502
840 77 182 262 702 286 808 2 8 8 29 13 45 6 17 40 126 76 243 288 927 434
1228 795 1642 78 89 311 322 401 400 34 30 68 60 74 65 6 6 40 35 76 65 36 30
67 57 70 60 27 29 372 292 550 420 80 58 213 156 295 220 339 259 526 363 726
403 113 24 195 31 444 42 72 3 148 8 170 11 52 6 183 24 213 29 13 2 53 7 90
10 37 4 74 8 82 10 97 26 900 26 1050 1 14 -3 59 -7 100 -10 41 -4 86 -8 100
-10 14 -2 50 -7 80 -11 205 -24 233 -32 120 -35 -230 -5 -284 -8 -288 -20 -2
-6 -30 -46 -62 -88 -63 -84 -115 -134 -230 -227 -41 -33 -77 -62 -80 -65 -18
-19 -228 -153 -290 -184 -106 -55 -130 -74 -218 -184 -69 -85 -445 -583 -587
-778 -11 -15 -25 -32 -30 -38 -6 -6 -22 -27 -35 -46 -13 -19 -27 -37 -30 -40
-3 -3 -34 -42 -68 -87 -66 -87 -252 -312 -311 -377 -94 -102 -171 -183 -313
-326 -342 -348 -524 -592 -600 -810 -28 -79 -29 -87 -35 -176 l-5 -80 44 -17
c25 -10 55 -27 67 -38 21 -20 27 -20 77 -10 139 27 226 126 335 376 67 154
130 270 179 327 61 72 221 216 384 343 22 17 44 35 50 40 6 6 72 57 146 114
147 113 148 115 260 251 24 30 124 134 220 230 97 96 196 198 220 225 85 96
170 198 235 280 17 21 35 43 40 49 6 6 23 29 40 51 39 53 153 181 310 349 17
18 70 76 119 129 49 54 120 129 158 167 l70 70 61 -30 c77 -37 174 -60 275
-64 138 -5 230 30 322 123 105 107 185 273 216 454 19 105 14 292 -8 367 -13
43 -13 45 17 75 27 27 136 125 234 210 256 222 374 342 464 473 58 84 103 173
111 218 3 16 10 44 15 62 8 27 7 34 -6 39 -25 10 -130 -16 -197 -47 -33 -16
-62 -27 -64 -26 -2 2 11 20 28 40 30 34 178 117 230 128 93 21 357 106 415
133 111 53 179 132 188 220 5 52 4 51 167 70 27 3 200 13 318 18 26 1 10 13
-35 27 -270 78 -327 112 -358 216 -10 33 -50 107 -90 169 -39 61 -75 115 -78
122 -13 22 -17 124 -6 171 22 98 85 197 185 292 188 177 370 240 562 195 83
-20 135 -47 188 -101 82 -82 109 -196 74 -320 -54 -198 -197 -286 -401 -248
-62 12 -198 67 -200 82 -13 94 10 148 83 196 55 36 114 57 107 38 -2 -5 -32
-31 -66 -56 -34 -25 -69 -58 -77 -74 l-15 -29 78 -51 c80 -52 100 -56 188 -38
59 12 127 67 158 126 18 35 45 128 51 176 5 39 3 44 -51 102 -149 161 -325
159 -522 -7 -37 -31 -94 -88 -126 -126 -64 -76 -138 -180 -132 -186 2 -2 6
-24 10 -49 41 -280 290 -495 625 -537 303 -39 636 87 744 280 50 89 66 169 61
302 -7 203 -87 427 -228 643 -42 63 -67 78 -132 80 -44 1 -76 24 -130 92 -68
86 -119 112 -269 138 -184 33 -372 16 -584 -54 -298 -97 -553 -281 -650 -468
-21 -41 -27 -67 -29 -132 -2 -70 3 -96 34 -190 58 -177 47 -249 -55 -347 l-40
-39 34 -106 c53 -165 54 -149 -13 -218 -52 -53 -138 -127 -189 -162 -11 -7
-104 -70 -208 -140 l-190 -127 -115 -151 c-64 -83 -126 -164 -138 -180 -23
-31 -34 -44 -84 -109 -36 -47 -97 -112 -130 -140 -190 -157 -244 -210 -293
-288 -16 -27 -20 -28 -69 -22 -29 3 -59 7 -67 10 -8 2 -31 6 -51 9 -77 11
-284 81 -499 168 -384 155 -479 188 -576 204 -21 3 -42 8 -45 9 -9 6 -317 58
-414 71 -22 2 -46 7 -53 9 -51 18 -374 25 -517 12 -184 -18 -190 -19 -385 -53
-14 -3 -74 -16 -135 -30 -60 -14 -118 -27 -127 -29 -197 -44 -699 -209 -883
-290 -16 -7 -86 -37 -155 -65 -226 -94 -634 -293 -674 -328 -10 -10 -19 -15
-20 -12 -3 11 -318 -189 -444 -282 -150 -111 -267 -212 -418 -363 -305 -304
-537 -637 -753 -1080 -133 -272 -184 -402 -261 -660 -34 -115 -68 -228 -75
-250 -7 -22 -36 -119 -65 -215 -28 -96 -62 -209 -75 -250 -87 -277 -90 -309
-16 -202 22 31 128 179 235 327 211 293 262 366 501 730 336 512 633 903 955
1259 90 100 399 407 490 487 47 41 153 131 235 199 83 68 152 126 155 130 3 3
32 28 65 55 33 28 71 60 85 73 47 44 225 179 295 224 196 127 398 202 623 232
17 2 32 0 32 -5 0 -5 -9 -9 -20 -9 -29 0 -132 -36 -217 -75 -69 -32 -276 -163
-318 -202 -11 -10 -43 -36 -70 -58 -51 -40 -81 -66 -190 -165 -200 -182 -240
-217 -264 -236 -331 -270 -378 -311 -599 -529 -159 -157 -291 -299 -445 -479
-99 -116 -121 -143 -175 -210 -31 -39 -62 -78 -69 -86 -66 -83 -108 -137 -159
-205 -32 -44 -61 -82 -64 -85 -3 -3 -20 -25 -38 -50 -18 -25 -56 -77 -85 -116
-61 -83 -62 -84 -174 -239 -47 -66 -105 -147 -128 -180 -195 -284 -580 -827
-635 -895 -11 -14 -57 -73 -103 -131 -349 -448 -699 -778 -1072 -1010 -66 -41
-145 -88 -175 -103 -30 -16 -60 -35 -67 -43 -7 -9 -12 -56 -13 -121 0 -59 -2
-134 -5 -167 -2 -33 -6 -112 -10 -175 -8 -145 -13 -211 -20 -277 -3 -29 -7
-79 -10 -110 -3 -32 -8 -80 -12 -108 -3 -27 -7 -61 -8 -75 -5 -57 -16 -157
-20 -185 -7 -64 -18 -181 -17 -197 0 -10 -3 -18 -8 -18 -13 0 -42 141 -55 275
-26 262 -15 856 20 1115 18 128 19 176 30 1604 6 731 5 799 -9 787 -9 -8 -16
-18 -16 -24 0 -11 -82 -240 -100 -282 -5 -11 -37 -87 -70 -170 -104 -252 -251
-547 -348 -695 -20 -30 -80 -113 -132 -185 -118 -159 -167 -232 -210 -310 -18
-33 -36 -63 -39 -68 -9 -9 161 495 226 673 62 168 189 490 225 570 101 222
241 485 331 620 l17 26 -178 91 c-97 50 -298 152 -447 228 -148 76 -360 184
-470 240 -110 56 -310 159 -445 228 -390 198 -729 372 -945 482 -110 56 -365
186 -567 289 l-368 187 -1 -63 c0 -35 -2 -79 -4 -98 -2 -19 -6 -69 -10 -110
-3 -41 -10 -102 -15 -135 -5 -33 -12 -82 -15 -110 -10 -77 -13 -95 -25 -170
-6 -38 -14 -87 -17 -108 -3 -21 -6 -46 -7 -55 -2 -9 -8 -18 -14 -20 -6 -2 -13
20 -17 55 -4 32 -8 69 -10 83 -2 14 -7 52 -10 85 -3 33 -10 92 -15 130 -8 61
-29 246 -47 410 -2 28 -6 59 -8 70 -2 11 -4 24 -4 28 -1 5 -121 -53 -268 -129
-512 -262 -659 -337 -818 -419 -151 -78 -316 -162 -825 -423 -350 -178 -801
-410 -1250 -640 -113 -57 -210 -109 -217 -114 -8 -6 5 -40 47 -121 32 -62 75
-150 95 -197 21 -47 45 -103 55 -125 21 -47 163 -406 192 -485 11 -30 24 -64
29 -75 7 -17 178 -463 333 -870 25 -65 43 -121 41 -123 -5 -6 -82 101 -158
221 -111 175 -204 351 -466 882 -136 275 -255 516 -265 535 -16 33 -17 -6 -11
-920 10 -1560 10 -1846 2 -2040 -5 -102 -10 -198 -12 -215 -2 -16 -6 -66 -10
-110 -3 -44 -8 -93 -9 -110 -2 -16 -7 -64 -11 -105 -4 -41 -10 -81 -14 -88 -6
-11 -32 74 -47 153 -9 50 -43 275 -49 320 -3 28 -8 66 -10 85 -3 19 -7 67 -10
105 -3 39 -8 84 -10 100 -23 173 -22 619 1 679 4 11 -18 27 -88 62 -196 99
-300 181 -621 494 -207 202 -208 202 -267 254 -25 21 -79 71 -120 111 -251
243 -344 364 -1102 1440 -279 396 -568 776 -810 1065 -172 205 -492 535 -653
675 -44 38 -85 74 -91 80 -6 5 -25 21 -43 35 -18 14 -38 30 -44 35 -7 6 -59
49 -117 96 -58 47 -141 114 -184 149 -463 379 -831 595 -1113 651 -72 15 -84
29 -20 24 45 -3 179 -31 212 -44 11 -5 56 -20 100 -34 139 -44 177 -60 290
-117 175 -89 369 -225 604 -425 20 -17 101 -84 181 -150 462 -379 887 -810
1276 -1296 166 -207 381 -494 492 -656 7 -10 76 -110 155 -223 78 -113 155
-226 172 -250 16 -25 32 -47 35 -50 4 -3 40 -54 81 -115 42 -60 107 -155 145
-210 38 -55 92 -136 119 -180 49 -79 120 -165 136 -165 4 0 -3 27 -17 61 -31
76 -99 274 -124 359 -199 688 -262 899 -295 975 -16 37 -27 67 -30 80 -9 37
-212 461 -235 490 -4 6 -19 30 -32 55 -55 100 -71 125 -130 213 -233 350 -504
634 -847 890 -119 90 -289 202 -391 259 -25 14 -77 44 -116 66 -132 75 -350
182 -619 302 -35 16 -234 98 -290 120 -11 4 -36 15 -55 23 -164 70 -618 212
-805 251 -124 26 -175 36 -205 41 -19 3 -60 10 -90 15 -30 5 -77 12 -105 15
-27 3 -61 8 -75 10 -124 23 -654 23 -722 1 -7 -3 -31 -7 -53 -10 -181 -24
-351 -72 -705 -201 -209 -77 -236 -85 -485 -161 -348 -107 -450 -137 -469
-138 -15 -1 -36 39 -107 199 -49 110 -96 214 -103 230 -8 17 -42 93 -76 170
-34 77 -72 160 -83 185 -60 135 -117 263 -117 265 0 8 171 145 181 145 7 0
116 -60 243 -134 302 -175 327 -189 333 -182 5 4 -154 261 -323 522 l-52 80
15 70 c8 38 16 76 18 84 1 8 10 40 19 70 25 89 38 180 38 260 -1 72 -8 135
-17 151 -8 11 10 22 315 193 162 90 296 169 298 175 2 7 -16 9 -60 6 -35 -2
-115 -7 -178 -10 -207 -10 -274 -14 -381 -20 l-105 -7 -33 66 c-38 78 -107
151 -250 267 -57 46 -109 89 -116 94 -21 18 -33 49 -39 105 -10 92 -6 433 9
667 4 67 -4 85 -21 50z m21711 -3497 c19 -8 19 -9 -2 -9 -12 -1 -25 4 -28 9
-7 12 2 12 30 0z m-18868 -64 c44 -4 35 -16 -13 -17 -27 -1 -58 -3 -69 -4 -20
-3 -116 -11 -235 -20 -36 -3 -83 -7 -105 -9 -47 -5 -172 -16 -235 -21 -25 -2
-81 -7 -125 -11 -135 -11 -82 6 65 21 66 7 139 16 160 20 70 15 116 28 139 40
21 11 62 13 211 9 102 -3 195 -7 207 -8z m19868 -1 c28 -4 91 -13 142 -20 79
-13 116 -22 202 -51 8 -2 12 -7 9 -9 -4 -4 -44 0 -198 20 -19 2 -78 9 -130 15
-52 6 -108 13 -125 15 -68 9 -214 20 -350 25 -41 2 -45 3 -25 10 26 8 390 4
475 -5z m-10020 -1890 c17 -2 55 -6 85 -10 30 -3 78 -8 105 -11 129 -15 659
-165 825 -234 187 -77 360 -164 360 -181 0 -3 -24 0 -52 8 -62 16 -726 183
-748 188 -8 2 -87 22 -175 45 -88 23 -169 43 -180 45 -11 3 -73 18 -138 35
-65 16 -120 30 -122 30 -8 0 32 -77 73 -140 62 -98 93 -142 258 -362 89 -119
186 -256 216 -305 75 -120 168 -317 168 -354 0 -29 -177 139 -300 287 -141
168 -335 466 -491 753 -13 25 -29 46 -35 48 -12 4 -32 -26 -92 -137 -20 -36
-46 -82 -59 -102 -13 -21 -23 -40 -23 -43 0 -3 -8 -18 -19 -33 -10 -15 -60
-90 -111 -167 -82 -124 -224 -317 -269 -365 -80 -87 -190 -195 -215 -213 -30
-21 -29 -17 5 33 9 14 70 112 135 219 66 107 129 210 141 230 13 20 26 43 30
51 4 8 23 40 42 70 20 30 41 64 48 75 6 11 63 103 125 204 131 214 149 244
144 248 -2 2 -57 -10 -122 -26 -100 -26 -583 -144 -635 -156 -8 -2 -163 -40
-344 -84 -180 -45 -330 -79 -333 -76 -3 2 4 8 14 11 10 4 44 18 74 31 243 109
554 229 725 281 99 30 123 36 200 47 39 5 143 21 195 30 14 2 48 7 75 11 28 3
82 12 120 20 64 12 210 12 300 -1z m-1903 -3241 c0 -44 -35 -129 -85 -206 -19
-29 -63 -102 -97 -163 -81 -141 -202 -322 -286 -427 -67 -84 -222 -241 -255
-259 -18 -9 -18 -8 0 38 64 163 139 275 367 548 151 180 257 329 305 424 24
49 45 87 47 86 2 -2 3 -20 4 -41z m3709 -209 c150 -198 353 -520 474 -750 49
-93 54 -106 31 -85 -15 14 -56 70 -90 125 -76 123 -72 118 -282 340 -141 150
-220 253 -271 358 -39 77 -73 189 -73 233 1 26 113 -91 211 -221z m-3926 -930
c119 -9 135 -11 196 -27 116 -31 96 -34 -226 -34 -286 0 -314 1 -300 15 24 25
144 57 200 55 28 -2 86 -6 130 -9z m3929 1 c42 -3 130 -8 194 -12 64 -3 125
-10 137 -14 18 -7 17 -9 -15 -28 -67 -41 -193 -53 -384 -38 -50 5 -98 9 -107
11 -9 2 -38 7 -63 10 -25 4 -46 10 -46 14 0 8 192 71 201 66 3 -2 40 -6 83 -9z
m-4813 -175 c-33 -45 -205 -181 -230 -181 -5 0 -11 -4 -13 -8 -4 -11 -148 -79
-217 -103 -69 -24 -88 -24 -101 1 -10 19 3 27 186 116 202 100 350 180 360
195 3 5 12 9 20 9 12 0 11 -6 -5 -29z m5771 -7 c82 -29 134 -57 290 -150 59
-36 132 -76 162 -90 37 -17 56 -31 56 -43 0 -16 -6 -17 -62 -9 -139 19 -285
92 -427 214 -54 46 -108 104 -97 104 2 0 38 -12 78 -26z m83 -830 c-32 -25
-236 -144 -246 -144 -5 0 -9 -4 -9 -10 0 -5 -4 -10 -9 -10 -4 0 -86 -46 -182
-102 -96 -55 -217 -126 -269 -156 -52 -30 -120 -71 -150 -90 -30 -19 -71 -45
-90 -57 -494 -315 -1152 -685 -1485 -835 -27 -13 -77 -35 -110 -50 -33 -15
-82 -38 -110 -50 -67 -30 -192 -88 -233 -107 -18 -9 -35 -13 -39 -10 -15 16
-2 104 26 163 25 52 61 95 199 237 93 94 195 201 227 237 32 36 72 81 89 100
18 19 70 78 116 130 161 180 350 362 465 446 l40 29 -50 -60 c-27 -33 -52 -62
-55 -65 -3 -3 -55 -63 -115 -135 -60 -71 -114 -135 -120 -142 -5 -6 -26 -31
-46 -55 -38 -44 -324 -383 -362 -428 -12 -14 -44 -52 -72 -85 -27 -33 -58 -69
-67 -79 -26 -29 -16 -30 48 -7 228 86 440 206 1039 590 162 104 307 183 465
254 89 39 162 73 249 113 51 24 95 44 96 44 2 0 46 20 99 45 53 25 99 45 101
45 3 0 38 15 77 34 40 19 102 48 138 64 36 17 101 47 144 67 44 20 103 46 130
57 28 12 55 25 61 30 5 4 14 8 20 8 5 0 1 -8 -10 -16z m-5805 -102 c69 -32
181 -84 295 -137 39 -18 122 -57 185 -88 63 -30 185 -87 270 -127 85 -40 215
-101 288 -136 74 -35 135 -64 137 -64 2 0 44 -23 220 -120 28 -15 75 -41 105
-58 30 -16 75 -41 100 -54 25 -14 77 -42 115 -63 39 -21 88 -48 110 -60 22
-12 67 -37 100 -55 129 -70 197 -107 368 -201 97 -53 177 -95 177 -92 0 7
-236 292 -259 313 -9 8 -28 31 -42 50 -15 19 -41 51 -59 70 -17 19 -41 48 -53
63 -12 16 -27 34 -32 40 -6 7 -60 71 -120 142 -60 72 -112 132 -115 135 -3 3
-38 46 -79 95 -51 62 54 -37 345 -325 230 -229 442 -436 469 -461 112 -102
186 -219 200 -316 l7 -53 -39 0 c-62 0 -178 43 -368 136 -156 76 -225 114
-490 270 -77 45 -156 91 -175 101 -74 42 -639 374 -915 538 -335 199 -531 315
-560 331 -11 6 -36 20 -55 31 -19 11 -75 44 -125 73 -83 48 -139 87 -90 63 11
-6 49 -24 85 -41z m4410 -1124 c3 -4 -11 -28 -31 -55 -202 -270 -250 -367
-255 -523 -2 -52 1 -115 7 -140 6 -25 12 -52 14 -60 10 -48 43 -146 81 -243
24 -61 42 -112 40 -114 -2 -2 -20 15 -41 39 -38 45 -72 105 -104 185 -52 133
-106 228 -115 203 -25 -73 -30 -204 -11 -295 19 -97 66 -242 111 -343 13 -31
13 -32 -4 -23 -58 31 -194 275 -234 419 -54 194 -12 385 129 589 50 72 323
350 356 362 23 9 50 8 57 -1z m-3052 -39 c96 -46 194 -148 254 -264 58 -113
86 -204 104 -340 5 -41 6 -215 1 -240 -3 -11 -8 -42 -12 -70 -14 -100 -115
-324 -174 -387 -37 -40 -58 -50 -42 -20 13 23 45 128 72 232 11 47 24 94 27
105 3 11 7 91 9 178 4 128 2 157 -9 157 -10 0 -18 -25 -26 -81 -17 -116 -74
-231 -154 -311 -34 -33 -64 -56 -65 -51 -2 5 11 43 28 84 117 278 152 475 112
629 -24 88 -50 128 -148 224 -88 86 -113 120 -130 175 -7 24 -6 24 40 18 26
-4 77 -21 113 -38z m4048 7 c170 -13 310 -95 330 -193 l6 -31 -153 61 c-85 34
-163 61 -174 61 -11 -1 -30 -2 -43 -3 -21 -1 -22 -2 -8 -28 51 -100 78 -315
52 -424 -46 -200 -193 -302 -410 -285 -102 7 -216 37 -216 55 0 4 17 8 38 9
232 14 446 131 525 288 24 46 30 131 14 185 -19 61 -122 199 -151 200 -11 0
-30 2 -41 5 -54 11 -165 -48 -243 -128 -94 -97 -207 -303 -227 -416 -2 -15 -9
-49 -14 -77 -10 -53 -8 -167 3 -225 l7 -35 -25 39 c-22 34 -42 102 -62 201
-56 288 59 450 466 657 14 7 52 29 85 49 75 45 81 47 130 43 22 -1 72 -5 111
-8z m-5109 -11 c460 -105 751 -389 720 -705 -11 -112 -38 -187 -81 -228 -25
-24 -37 -30 -32 -18 4 11 9 35 12 55 3 20 8 40 11 44 11 18 2 192 -13 254 -65
264 -273 464 -510 490 l-50 5 -36 -78 c-55 -122 -67 -202 -41 -287 19 -65 36
-92 93 -147 84 -83 249 -148 404 -159 14 -1 -2 -14 -22 -18 -46 -10 -154 -8
-217 3 -209 37 -339 131 -383 278 -27 94 1 240 70 364 17 28 26 52 21 53 -63
8 -163 -18 -268 -69 -38 -19 -81 -38 -94 -43 -22 -9 -23 -8 -16 18 17 69 87
121 220 163 22 7 49 19 60 26 25 18 68 18 152 -1z m-628 -98 c6 -34 13 -113
16 -175 10 -178 34 -237 182 -445 46 -65 87 -126 90 -134 11 -28 -54 16 -127
87 -161 155 -244 353 -235 560 4 92 7 112 27 166 11 30 14 33 24 19 7 -9 17
-44 23 -78z m6336 19 c14 -29 27 -74 28 -101 8 -127 -68 -314 -198 -490 -72
-98 -195 -219 -195 -192 0 4 37 74 53 102 202 342 242 456 256 739 2 29 26 4
56 -58z m1574 -3 c-30 -38 -79 -77 -190 -154 -122 -83 -155 -117 -311 -313
-77 -97 -173 -229 -188 -261 -3 -5 -18 -30 -34 -55 -16 -25 -47 -81 -68 -125
-21 -44 -43 -88 -49 -99 -6 -10 -21 -50 -34 -90 -13 -39 -24 -64 -25 -55 -1
46 109 304 191 447 151 264 277 405 529 597 153 116 215 153 179 108z m-9464
-28 c182 -87 376 -277 540 -530 81 -124 163 -273 195 -355 12 -30 27 -68 35
-85 40 -91 101 -300 84 -290 -35 22 -144 219 -229 415 -105 240 -181 371 -268
456 -26 26 -101 87 -166 137 -65 49 -143 113 -171 141 -70 67 -123 146 -99
146 4 0 39 -16 79 -35z m1955 -1736 c-64 -266 -397 -645 -800 -912 -144 -95
-360 -202 -360 -179 0 22 189 176 412 336 261 188 311 229 397 336 20 25 39
47 43 50 3 3 58 84 122 180 178 269 165 252 181 236 10 -9 11 -23 5 -47z
m5496 38 c69 -40 122 -107 200 -255 96 -179 154 -253 279 -357 33 -28 62 -53
65 -56 3 -3 48 -35 100 -71 284 -196 335 -234 425 -323 87 -87 87 -91 0 -47
-326 163 -749 507 -945 767 -76 100 -142 229 -158 308 -10 51 -5 57 34 34z
m7564 -101 c30 -3 74 -5 97 -5 40 -1 42 -2 29 -18 -8 -10 -54 -65 -102 -123
-283 -340 -407 -570 -406 -751 0 -80 30 -157 75 -195 29 -24 35 -26 121 -21
119 6 134 10 241 62 119 58 183 109 451 362 66 62 130 121 144 130 14 10 34
26 45 36 51 47 243 147 282 147 25 0 121 -100 161 -168 50 -86 70 -135 127
-312 71 -218 82 -243 199 -463 43 -82 80 -163 82 -180 28 -262 34 -290 84
-387 60 -118 81 -189 75 -257 -7 -92 -41 -137 -164 -217 -76 -49 -136 -105
-146 -136 -3 -9 9 -55 26 -101 17 -46 42 -113 56 -149 42 -111 53 -197 44
-335 -1 -16 -12 -24 -47 -33 -77 -21 -116 -78 -139 -203 -6 -31 -40 -59 -74
-59 -20 0 -46 21 -109 85 -115 117 -212 173 -279 159 -24 -5 -31 -13 -42 -52
-8 -26 -25 -82 -38 -126 l-25 -78 -32 6 c-38 8 -75 50 -118 138 -31 64 -35 68
-78 78 -150 34 -212 5 -267 -129 -15 -36 -39 -76 -55 -89 -26 -22 -28 -22 -34
-5 -62 195 -175 331 -369 444 -55 32 -339 169 -351 169 -16 0 -252 126 -319
170 -114 76 -173 122 -383 302 -103 89 -211 181 -241 207 -30 25 -59 51 -65
56 -6 6 -49 42 -96 82 -86 72 -102 92 -116 148 -4 17 -9 37 -11 45 -3 8 -6 69
-8 135 -7 241 52 504 157 703 190 361 532 668 870 780 53 17 113 34 134 38 20
3 48 10 61 15 13 5 23 7 23 5 0 -6 244 58 310 81 54 19 68 19 220 9z m-12127
-275 c-10 -102 -58 -266 -120 -414 -32 -78 -170 -341 -233 -447 -88 -146 -260
-396 -315 -456 -5 -7 -26 -31 -45 -55 -47 -60 -192 -210 -198 -205 -7 7 115
189 271 406 318 442 446 659 529 899 33 96 68 240 68 282 0 15 6 29 13 32 30
10 35 3 30 -42z m3677 -106 c23 -60 46 -119 50 -130 4 -11 22 -65 40 -120 57
-174 166 -383 298 -575 55 -79 218 -311 282 -400 72 -101 151 -220 146 -220
-10 0 -102 86 -161 151 -103 111 -148 168 -258 319 -182 252 -369 620 -432
855 -18 66 -44 252 -37 260 9 9 29 -30 72 -140z m-2203 -227 c-4 -40 -9 -84
-11 -98 -14 -69 -40 -166 -46 -175 -4 -5 -10 -22 -14 -38 -15 -63 -119 -273
-199 -402 -96 -153 -225 -314 -302 -375 -22 -18 -21 -15 30 65 289 449 435
754 485 1010 17 85 17 85 41 85 20 0 21 -3 16 -72z m700 19 c10 -173 62 -333
164 -513 52 -91 87 -144 221 -339 42 -60 86 -128 98 -150 12 -22 31 -55 42
-72 11 -18 18 -33 15 -33 -3 0 -39 52 -81 115 -42 63 -85 125 -96 138 -317
370 -402 535 -415 800 -4 83 -3 89 18 96 28 11 31 8 34 -42z m-10532 10 c17
-3 80 -8 140 -12 61 -4 126 -8 145 -10 19 -2 76 -6 125 -9 96 -7 189 -14 270
-21 28 -2 93 -7 145 -10 52 -4 111 -8 130 -10 19 -2 89 -6 155 -10 112 -6 174
-19 102 -21 -30 -1 -174 -10 -277 -19 -59 -5 -176 -13 -275 -20 -146 -10 -214
-16 -232 -19 -17 -4 -117 -15 -178 -21 -86 -9 -328 -16 -650 -20 -197 -3 -393
-7 -435 -10 -41 -3 -109 -8 -150 -11 -67 -4 -243 -27 -295 -38 -11 -2 -45 -7
-75 -11 -30 -4 -64 -9 -74 -11 -11 -2 -56 -8 -100 -14 -45 -6 -94 -13 -111
-16 -112 -20 -430 -6 -496 21 -9 3 -21 0 -27 -8 -20 -24 -39 -120 -42 -207 -3
-125 -7 -206 -14 -285 -3 -38 -8 -115 -11 -170 -3 -55 -8 -122 -10 -150 -2
-27 -6 -106 -10 -175 -4 -69 -8 -145 -10 -170 -2 -25 -7 -102 -11 -170 -11
-180 -12 -201 -13 -242 -2 -62 -16 -43 -31 40 -7 42 -15 84 -16 92 -8 38 -25
170 -30 230 -3 36 -8 76 -11 90 -9 46 -11 523 -2 610 8 80 10 101 25 210 3 25
17 89 30 142 13 53 24 101 24 106 0 6 -16 4 -37 -3 -22 -8 -39 -9 -41 -4 -6
16 46 95 80 121 165 126 461 179 1128 203 305 12 431 19 570 34 71 8 546 6
595 -2z m4735 -719 c-14 -5 -104 -31 -200 -57 -387 -107 -804 -314 -1059 -526
-170 -141 -272 -276 -540 -715 -376 -613 -510 -802 -697 -987 -99 -96 -144
-131 -144 -110 0 24 38 125 71 190 37 74 87 145 203 291 114 142 135 174 326
491 183 304 288 464 399 610 86 114 307 340 396 406 33 24 62 46 65 49 3 3 37
27 77 53 45 29 152 78 290 133 278 110 311 121 374 129 29 4 61 9 73 11 12 2
41 6 66 9 25 3 63 8 85 11 22 3 60 9 84 13 25 3 70 7 100 7 45 1 51 0 31 -8z
m1854 -427 c10 -15 -82 -44 -179 -57 -27 -3 -53 -8 -56 -10 -14 -8 -214 -19
-286 -15 -53 3 -5 36 67 46 19 3 98 7 175 10 145 4 203 11 239 25 28 12 34 12
40 1z m7286 -6 c14 -2 57 -7 95 -11 39 -3 81 -8 95 -10 14 -1 56 -6 94 -9 94
-10 101 -11 99 -18 -2 -4 -3 -11 -3 -15 0 -5 -16 -16 -37 -26 -56 -27 -196
-17 -318 22 -46 15 -165 70 -165 77 0 5 81 0 140 -10z m-4670 -690 c187 -7
248 -15 204 -28 -129 -39 -298 -54 -389 -35 -39 8 -54 16 -67 38 -20 34 -18
37 24 34 18 -1 121 -5 228 -9z m2179 5 c-2 -18 -17 -45 -25 -45 -15 -1 -104
-16 -127 -22 -12 -2 -63 -6 -112 -8 -89 -4 -141 5 -208 36 -25 11 -27 14 -10
20 10 3 88 5 173 3 103 -2 167 2 190 10 34 11 121 16 119 6z m-2596 -264 c68
-23 179 -54 222 -62 11 -2 42 -8 68 -13 116 -21 342 9 474 64 48 20 63 18 35
-5 -30 -25 -164 -76 -282 -108 -80 -21 -117 -25 -240 -26 -127 0 -152 3 -201
22 -62 25 -118 71 -143 120 -9 17 -14 32 -11 32 4 0 39 -11 78 -24z m2817 15
c0 -20 -78 -86 -146 -123 -109 -59 -289 -68 -443 -22 -69 20 -281 103 -299
117 -21 16 -6 19 39 7 24 -7 53 -14 64 -16 11 -2 56 -10 100 -19 153 -29 201
-33 330 -31 145 4 205 18 276 66 43 29 79 39 79 21z m10406 -642 c41 -81 58
-174 58 -324 0 -180 -26 -284 -86 -348 -33 -34 -81 -50 -188 -62 -42 -5 -57
-7 -120 -21 -14 -3 -34 -7 -45 -9 -95 -20 -268 -34 -370 -30 -160 5 -231 25
-499 139 -122 51 -238 99 -258 106 -47 14 -48 31 -5 52 84 41 168 154 181 245
6 43 15 56 36 50 10 -2 24 3 32 12 42 50 88 116 88 127 0 7 11 25 24 39 l24
26 43 -58 c145 -198 269 -244 394 -149 16 13 48 57 70 99 22 42 47 78 55 79 8
2 31 -17 51 -42 86 -109 208 -191 286 -192 87 -1 146 80 167 231 4 24 9 48 12
53 11 17 34 7 50 -23z m-23806 -1282 c69 -61 151 -175 310 -432 177 -285 227
-339 428 -463 45 -28 84 -52 87 -52 3 -1 37 -16 77 -34 68 -31 218 -83 263
-92 11 -2 31 -6 45 -9 61 -13 79 -16 135 -22 113 -13 377 -5 405 12 4 2 22 7
41 10 111 19 299 103 411 184 42 31 86 63 98 71 12 8 44 31 70 50 26 19 58 42
70 50 12 8 38 27 58 43 57 45 55 37 -17 -58 -110 -144 -339 -348 -463 -411
-100 -51 -241 -95 -353 -112 -104 -15 -315 -6 -425 17 -196 43 -431 133 -546
210 -25 17 -47 31 -49 31 -11 0 -166 125 -226 182 -164 156 -326 385 -428 603
-96 205 -111 247 -99 268 9 16 12 16 46 -3 20 -12 48 -31 62 -43z m7213 -3032
c58 -62 117 -156 202 -325 43 -85 119 -222 168 -305 159 -265 208 -394 202
-537 -4 -94 -46 -180 -117 -242 -54 -47 -156 -108 -143 -85 5 8 20 32 35 54
28 43 76 147 91 198 32 107 31 245 0 328 -26 70 -90 144 -135 159 -53 17 -231
35 -353 35 l-113 0 5 55 c3 30 8 87 11 125 3 39 7 86 9 105 2 19 7 69 10 110
3 41 8 93 10 115 3 22 7 74 11 115 3 41 8 91 9 110 2 19 4 44 4 54 1 18 3 18
28 -5 15 -13 45 -42 66 -64z"/>
<path d="M28138 13421 c-2 -3 -38 -32 -80 -64 -90 -67 -158 -146 -158 -186 0
-78 269 -348 397 -397 l43 -17 34 39 c162 181 119 457 -90 580 -46 27 -141 57
-146 45z"/>
<path d="M27253 13248 c-10 -4 -71 -26 -137 -50 -105 -37 -127 -49 -194 -108
-214 -185 -268 -408 -130 -536 253 -235 625 -107 779 266 18 43 23 75 23 150
1 84 -2 100 -24 140 -29 51 -94 104 -148 121 -52 16 -147 26 -169 17z"/>
<path d="M27984 12838 c-76 -128 -154 -389 -154 -513 0 -153 70 -238 190 -230
25 1 55 3 67 4 33 2 93 59 115 110 41 96 27 277 -37 486 -39 130 -60 172 -87
178 -12 3 -32 8 -43 12 -16 5 -26 -4 -51 -47z"/>
<path d="M5204 24419 c-7 -12 183 -305 204 -313 7 -3 40 36 85 104 45 69 81
113 97 119 14 5 47 17 74 27 42 15 96 54 96 69 0 11 -549 5 -556 -6z"/>
<path d="M4996 24385 c-22 -13 -76 -36 -120 -50 -177 -60 -237 -104 -288 -212
-35 -73 -40 -98 -41 -183 0 -80 28 -177 90 -308 25 -53 77 -168 115 -256 38
-89 78 -179 88 -201 25 -55 262 -594 323 -735 27 -63 72 -180 99 -260 27 -80
53 -154 58 -165 5 -11 19 -45 31 -75 79 -206 202 -352 331 -391 154 -46 442
67 505 198 72 153 37 305 -178 778 -10 22 -138 312 -284 645 -336 764 -312
714 -375 790 -30 36 -57 67 -60 70 -3 3 -24 27 -45 55 -22 27 -48 58 -57 69
-30 33 -96 169 -103 214 -8 50 -27 54 -89 17z"/>
<path d="M9135 22313 c-55 -30 -161 -86 -235 -125 -74 -39 -139 -74 -145 -78
-5 -4 -64 -36 -130 -71 -261 -137 -238 -121 -252 -170 -8 -24 -33 -118 -57
-208 -25 -89 -46 -164 -48 -166 -2 -1 -88 -46 -193 -101 -104 -54 -253 -131
-330 -171 -77 -40 -176 -92 -220 -114 -44 -22 -116 -60 -160 -83 -44 -23 -168
-87 -275 -143 -221 -114 -395 -204 -588 -305 l-133 -69 -42 35 c-91 75 -173
89 -263 46 -85 -42 -184 -179 -229 -320 -10 -30 -18 -56 -17 -57 0 -2 -4 -17
-9 -35 -5 -18 -12 -67 -15 -108 -5 -72 -5 -76 24 -110 l30 -35 83 1 c46 0 101
4 122 8 20 4 37 5 37 2 0 -3 -60 -36 -132 -72 -128 -64 -135 -66 -192 -61 -48
4 -64 11 -91 37 -56 54 -72 154 -48 295 14 85 61 232 94 296 l19 38 -37 10
c-21 6 -60 13 -88 18 -96 14 -572 6 -675 -12 -14 -2 -58 -7 -98 -10 -41 -4
-81 -8 -90 -10 -9 -1 -44 -6 -77 -10 -32 -3 -62 -8 -65 -10 -3 -1 -32 -6 -65
-9 -33 -4 -67 -9 -75 -11 -8 -2 -44 -6 -80 -10 -36 -3 -87 -7 -115 -10 -138
-14 -230 -21 -405 -30 -47 -3 -119 -7 -160 -10 -41 -3 -109 -7 -150 -10 -169
-11 -309 -26 -488 -51 -42 -6 -207 -38 -297 -59 -102 -23 -105 -24 -123 -29
-9 -3 -29 -7 -43 -10 -35 -6 -166 -42 -264 -73 -44 -14 -84 -26 -90 -27 -5 -2
-19 -7 -30 -11 -11 -5 -41 -16 -67 -26 -26 -10 -71 -32 -100 -48 -29 -16 -100
-54 -157 -84 -120 -63 -128 -75 -129 -184 0 -142 54 -318 191 -621 12 -26 22
-49 22 -52 0 -3 22 -48 49 -100 151 -299 349 -559 722 -950 45 -47 95 -99 110
-116 264 -285 341 -374 468 -543 17 -23 -152 70 -256 140 -267 179 -575 469
-816 767 -93 115 -233 307 -274 377 -16 28 -43 73 -60 100 -179 292 -303 648
-309 888 -1 26 -5 47 -9 47 -12 0 -68 -66 -86 -103 -43 -83 -53 -236 -24 -367
39 -181 165 -461 373 -830 11 -19 31 -55 45 -80 284 -508 644 -903 992 -1087
394 -209 732 -151 1120 192 25 22 94 87 154 145 139 133 130 125 206 190 36
30 67 57 70 60 3 3 37 32 75 65 275 235 522 503 911 990 105 132 227 277 270
321 329 340 466 484 490 514 16 19 33 40 39 46 5 6 26 30 45 54 19 24 40 48
45 54 6 6 42 49 80 95 77 92 41 70 390 236 141 67 248 118 464 222 96 45 175
83 177 83 1 0 78 37 171 81 198 96 368 177 648 309 44 21 134 63 200 95 103
48 124 55 155 49 43 -9 26 -5 210 -48 85 -20 163 -38 173 -40 10 -3 81 35 165
88 81 50 188 116 237 146 50 30 92 57 95 61 3 3 12 9 20 13 17 8 22 11 158 95
122 75 120 56 32 239 -131 271 -424 770 -462 785 -7 2 -58 -20 -113 -50z m70
-176 c36 -52 -3 -143 -57 -133 -13 3 -29 5 -36 5 -7 1 -20 16 -29 35 -15 32
-14 36 3 72 27 56 88 66 119 21z m-457 -371 c8 -8 18 -33 22 -56 7 -40 6 -42
-31 -66 -49 -30 -52 -30 -89 6 -36 35 -39 70 -9 112 19 26 26 29 57 24 20 -3
42 -12 50 -20z m803 -243 c22 -58 1 -92 -57 -93 -23 0 -34 6 -42 25 -17 37
-15 47 12 76 30 33 73 29 87 -8z m-529 -202 c29 -2 78 -50 74 -74 -3 -12 -5
-29 -5 -38 -1 -10 -20 -24 -48 -36 -47 -19 -49 -19 -79 -1 -25 15 -31 24 -32
61 -3 50 26 97 56 92 9 -2 25 -4 34 -4z m-4747 -1581 c34 -1 4 -13 -245 -95
-129 -42 -264 -87 -300 -100 -160 -56 -280 -93 -279 -87 1 17 110 96 176 129
39 19 154 63 255 98 197 68 178 65 393 55z m153 -66 c22 -15 22 -34 -1 -34 -6
0 -41 -11 -77 -24 -36 -13 -126 -45 -200 -71 -74 -25 -164 -57 -200 -70 -36
-13 -110 -39 -165 -58 -55 -20 -185 -65 -288 -102 -104 -37 -191 -64 -194 -61
-3 2 18 28 46 56 36 36 78 64 137 91 75 35 285 111 340 124 112 26 443 131
492 156 39 20 71 18 110 -7z m61 -87 c6 -8 13 -30 16 -50 7 -42 6 -42 -105
-80 -41 -14 -156 -55 -255 -92 -99 -37 -218 -80 -265 -96 -47 -17 -94 -34
-105 -39 -11 -5 -65 -25 -120 -45 -55 -19 -109 -39 -120 -45 -11 -5 -40 -16
-65 -24 -25 -8 -75 -26 -112 -40 -61 -22 -68 -23 -69 -8 0 9 -2 37 -4 62 l-5
45 58 22 c52 19 321 115 727 259 83 29 206 73 275 98 145 52 134 50 149 33z
m-9 -183 c0 -26 -53 -126 -75 -140 -11 -7 -193 -79 -405 -159 -212 -80 -394
-150 -405 -155 -88 -40 -85 -40 -170 -2 -44 19 -83 40 -87 46 -4 6 32 24 100
49 59 21 116 43 127 47 11 5 90 34 175 66 85 31 183 67 217 80 34 13 68 24 76
24 7 0 17 3 21 7 10 11 387 151 409 152 9 1 17 -6 17 -15z m-210 -259 c0 -13
-59 -58 -130 -100 -95 -57 -203 -99 -305 -119 -214 -41 -223 -27 -28 46 87 33
167 63 178 68 11 6 69 28 130 51 60 22 117 45 125 50 17 10 30 11 30 4z"/>
<path d="M31185 21987 c-187 -95 -369 -190 -405 -211 -153 -90 -490 -265 -675
-351 -137 -64 -435 -181 -560 -219 -66 -21 -133 -42 -149 -47 -16 -5 -31 -8
-32 -6 -2 2 83 45 189 97 106 51 423 208 706 347 282 140 639 315 792 390 154
76 279 141 279 146 0 22 -298 -30 -483 -84 -156 -46 -612 -214 -734 -270 -24
-10 -49 -19 -57 -19 -8 0 -17 -4 -20 -9 -3 -5 -18 -12 -33 -16 -15 -3 -45 -15
-68 -25 -22 -10 -74 -32 -115 -48 -42 -17 -152 -63 -245 -102 -623 -265 -779
-333 -809 -353 -18 -12 -122 -74 -229 -137 -156 -91 -198 -121 -206 -143 -6
-16 -9 -73 -8 -128 2 -54 0 -99 -3 -99 -13 0 -50 46 -65 82 -23 56 -19 107 15
174 54 109 195 236 343 310 44 23 66 39 58 43 -26 17 -292 -32 -441 -80 -237
-77 -345 -177 -312 -286 7 -21 36 -69 64 -107 153 -200 170 -236 89 -189 -54
31 -96 66 -127 105 l-21 27 -189 -70 c-104 -39 -209 -77 -233 -86 l-44 -16 59
-56 c33 -31 84 -77 114 -102 98 -83 166 -153 205 -211 21 -32 44 -58 52 -58
21 0 102 43 176 94 37 25 93 55 124 66 l58 20 28 -33 c32 -37 90 -153 106
-213 12 -46 21 -50 117 -60 109 -11 234 22 429 116 165 79 183 86 269 114 10
4 17 8 15 10 -5 5 -62 -9 -214 -50 -113 -31 -269 -40 -298 -16 -8 7 -45 72
-81 143 l-66 131 17 29 c41 69 160 143 479 301 127 63 244 124 260 135 32 21
218 128 329 188 39 21 93 50 120 65 28 15 85 47 129 70 127 68 714 360 736
366 5 1 85 37 175 79 94 44 170 76 285 121 63 25 144 57 180 71 72 29 199 92
245 123 36 24 31 25 -25 5 -68 -24 -68 -18 0 29 70 49 93 76 63 76 -10 -1
-171 -79 -358 -173z"/>
</g>
</svg>
